<svg id="Layer_1" xmlns="http://www.w3.org/2000/svg" xmlns:xlink="http://www.w3.org/1999/xlink" viewBox="0 0 250 250"><style>.st0{opacity:6.000000e-02;fill:#1B75BB;} .st1{fill:#808184;} .st2{fill:#A6A8AB;} .st3{fill:#444445;} .st4{fill:#020202;} .st5{fill:none;stroke:#020202;stroke-width:3;stroke-linecap:round;stroke-miterlimit:10;stroke-dasharray:1,6;} .st6{fill:#FFFFFF;} .st7{fill:#F6921E;} .st8{fill:#929497;} .st9{fill:none;stroke:#6D6E70;stroke-miterlimit:10;} .st10{fill:#434243;} .st11{fill:#383838;} .st12{fill:#E1DFDF;} .st13{fill:#CCAC8E;} .st14{fill:#282827;} .st15{fill:#DAB38E;} .st16{fill:none;} .st17{fill:#E1C09E;} .st18{fill:#F2E7DA;} .st19{fill:#DCD0C6;} .st20{fill:#C5A281;} .st21{fill:#ABB137;} .st22{fill:#FAF1EA;} .st23{clip-path:url(#SVGID_2_);} .st24{clip-path:url(#SVGID_4_);fill:#DAB38E;} .st25{fill:#333030;} .st26{fill:#DABE9E;} .st27{fill:#3D322A;} .st28{fill:#D8A981;} .st29{clip-path:url(#SVGID_6_);fill:#2F2720;} .st30{fill:#D4A980;} .st31{fill:#424143;} .st32{fill:#CCCBCB;} .st33{fill:#AF9B96;} .st34{fill:#2A2B2A;} .st35{fill:none;stroke:#231F20;stroke-width:8;stroke-miterlimit:10;} .st36{fill:none;stroke:#231F20;stroke-width:2;stroke-miterlimit:10;} .st37{fill:#F05A28;} .st38{fill:#231F20;} .st39{fill:#C4D02E;} .st40{clip-path:url(#SVGID_8_);} .st41{clip-path:url(#SVGID_10_);fill:#DAB38E;} .st42{clip-path:url(#SVGID_12_);fill:#2F2720;} .st43{clip-path:url(#SVGID_14_);fill:#E1DFDF;} .st44{clip-path:url(#SVGID_14_);fill:#CCAC8E;} .st45{clip-path:url(#SVGID_14_);fill:#B0BC36;} .st46{clip-path:url(#SVGID_16_);} .st47{clip-path:url(#SVGID_18_);fill:#B0BC36;} .st48{clip-path:url(#SVGID_20_);fill:#DAB38E;} .st49{clip-path:url(#SVGID_22_);fill:#ABB137;} .st50{clip-path:url(#SVGID_24_);fill:#DAB38E;} .st51{fill:#A31D2C;} .st52{fill:#BE1E2D;} .st53{fill:#821D2D;} .st54{font-family:&apos;Roboto-Medium&apos;;} .st55{font-size:8.7891px;} .st56{fill:#37B34A;}</style><circle class="st0" cx="125" cy="125" r="125"/><path class="st1" d="M214.7 212.1H35.3C58 235.5 89.8 250 125 250s67-14.5 89.7-37.9z"/><path class="st2" d="M250 125c0-5.5-.4-10.8-1-16.1l-4.6 7.2c-2.4 3.8-6.4 6.4-10.9 7.1l-105 15.8c-3 .5-5.5 2.7-6.2 5.7l-.1.5-5.9 24.3-1 23.8 114 .7c13.1-19.8 20.7-43.5 20.7-69z"/><path class="st3" d="M240.9 171.9c-5.9-11.6-18-19.5-31.9-19.5-19.8 0-35.8 16-35.8 35.8 0 1.9.1 3.7.4 5.5l55.6.4c4.6-7 8.5-14.4 11.7-22.2z"/><path class="st4" d="M238.6 177.2c-4.5-12-16-20.6-29.6-20.6-17.4 0-31.5 14.1-31.5 31.5 0 16.6 12.9 30.3 29.2 31.4 13.5-11.5 24.4-26 31.9-42.3z"/><circle class="st2" cx="209" cy="188.1" r="18.3"/><circle class="st5" cx="209" cy="188.1" r="3.2"/><path class="st6" d="M122.2 145.1h11.3s5.5-.4 5 5.3-1.6 13.9-1.6 13.9l-20.2 3.4 5.5-22.6z"/><path class="st7" d="M133.5 145.1s5.5-.4 5 5.3-1.6 13.9-1.6 13.9l-7.9 1.3"/><path class="st8" d="M137.3 193.3h-20.4c-3.7 0-6.7-3-6.7-6.7v-9c0-3.7 3-6.7 6.7-6.7h20.4c3.7 0 6.7 3 6.7 6.7v9c0 3.7-3 6.7-6.7 6.7z"/><path class="st9" d="M233.5 123.2s-.1 6.4-6.1 7.3c-6 .9-98.4 14.6-98.4 14.6h-6.8"/><path class="st10" d="M162.3 223c-1.9 0-3.4-1.7-3.4-3.7v-61.5c0-2.1 1.5-3.7 3.4-3.7s3.4 1.7 3.4 3.7v61.5c0 2.1-1.5 3.7-3.4 3.7M173.8 223c-1.9 0-3.4-1.7-3.4-3.7v-61.5c0-2.1 1.5-3.7 3.4-3.7s3.4 1.7 3.4 3.7v61.5c0 2.1-1.5 3.7-3.4 3.7M139.2 119.9c-.7 8.3 2.8 16.4 9.6 21.4.4.3 1 .5 1.4.6 1.4.3 3-.2 4-1.4 1.3-1.7 1.5-3.6-.2-4.9-4.6-3.4-7.7-9.3-7.2-15 .2-2.4.9-4.7 2.1-6.6l-6.4-4.2c-1.9 3-3 6.5-3.3 10.1M165.1 98c-6.4-.5-12.6 1.4-17.5 5.6-2.1 1.8-3.8 3.8-5.2 6.1l6.4 4.2c3-5.4 9-8.8 15.6-8.3 2.1.2 3.9-1.4 4.1-3.5.3-2-1.3-3.9-3.4-4.1M192.9 109.9l-6.4 4.2c1.1 2 1.8 4.1 2 6.5.5 5.7-2.6 11.6-7.2 15-1.7 1.3-1.4 3.2-.2 4.9.9 1.3 2.5 1.8 4 1.4.5-.1 1-.3 1.4-.6 6.7-5 10.3-13 9.6-21.4-.3-3.6-1.4-7-3.2-10"/><path class="st10" d="M187.7 103.6c-4.9-4.1-11.1-6.1-17.5-5.6-2.1.2-3.7 2-3.5 4.1.2 2.1 2 3.7 4.1 3.5 6.6-.6 12.6 2.9 15.7 8.4l6.4-4.2c-1.4-2.3-3.1-4.4-5.2-6.2"/><path class="st11" d="M182.9 116.4l.1-.1v-7.6c0-7.6-6.2-13.8-13.8-13.8h-2.5c-7.6 0-13.8 6.2-13.8 13.8v36.7c0 7.6 6.2 13.8 13.8 13.8h2.5c7.6 0 13.8-6.2 13.8-13.8v-29.1l-.1.1"/><path class="st12" d="M153 141.5l-.1 3.1h.1v-3.1m-.1-7v.2h.1l-.1-.2c.1 0 .1 0 0 0"/><path class="st13" d="M153 141.5"/><path class="st14" d="M153 134.5v.2c.3.3.6.5 1 .8.8.6 1.1 1.3 1.2 2.1v.4c0 .8-.4 1.7-1 2.4-.3.4-.7.8-1.2 1v3.2l2.8.7H156.1c.4 0 .7-.3.8-.6.1-.3-.1-.7-.3-.9l.3-1.1c.3 0 .6-.3.7-.6.1-.3-.1-.7-.3-.9l.3-1.1c.4 0 .7-.3.8-.6.1-.4-.1-.8-.4-.9l.3-1.1c.4 0 .7-.3.8-.6V136.6c0-.3-.3-.6-.6-.7l-.3-.1-3.5-.9-1-.3c-.5 0-.6-.1-.7-.1M182.5 134.6l-1 .2-3.8.9c-.3.1-.6.4-.6.7V136.7c.1.4.4.6.8.6l.3 1.1c-.3.2-.5.5-.4.9.1.4.4.6.8.6l.3 1.1c-.3.2-.4.5-.3.9.1.3.4.6.7.6l.3 1.1c-.3.2-.4.5-.3.9.1.4.4.6.8.6H180.4l.2-.1 2.6-.6v-2.8c-.7-.2-1.3-.7-1.8-1.3-.6-.8-1-1.7-1-2.5v-.2c0-.8.4-1.5 1.2-2.1.1-.3.5-.6.9-.9"/><path class="st15" d="M184.6 133c-.2 0-.4 0-.6.1l-.9.9v7.7c.4.1.8.2 1.1.2.3 0 .6 0 .9-.1.3-.1.6-.1.9-.3.1 0 .2-.1.3-.2.1 0 .1-.1.2-.1.9-.7 1.8-1.4 2.6-2.2-.2-.8-.7-1.6-1.2-2.6-1-1.8-1.9-3.4-3.3-3.4"/><path class="st16" d="M180.1 133h9v8.9h-9z"/><path class="st17" d="M178.3 139.3c-.2-.4-.1-.8.2-1l-.5-1c-.4.1-.7-.1-.9-.4-.2-.4-.1-.9.3-1.1l.3-.2 1.2-.6 2-1.1.9-.5c2.4-1.3 3.4.7 4.7 3.1 1.3 2.4 2.3 4.3-.1 5.6l-.9.5-.4.2-2.8 1.5-.2.1c-.4.2-.9.1-1.1-.3-.2-.3-.1-.7.1-.9l-.5-1c-.3 0-.7-.1-.8-.4-.2-.3-.1-.7.1-.9l-.5-1c-.5-.1-.9-.2-1.1-.6"/><path class="st18" d="M148.8 141.3c.2.2.5.3.7.3-.2 0-.4-.1-.7-.3m2.5-8.2c.5.6 1.1 1.1 1.6 1.6-.5-.5-1.1-1-1.6-1.6"/><path class="st15" d="M150.8 133c-1.5 0-2.3 1.6-3.3 3.5-.5 1-1 1.8-1.2 2.6.8.8 1.6 1.5 2.5 2.2 0 0 .1 0 .1.1.2.2.5.3.7.3.2.1.4.1.6.2.3.1.5.1.8.1h.2c.6 0 1.2-.2 1.8-.5v-6.8c-.6-.5-1.1-1-1.6-1.6-.3-.1-.5-.1-.6-.1"/><path class="st19" d="M152.9 134.7c.1 0 .1 0 0 0 .1 0 .1 0 0 0"/><path class="st20" d="M152.9 134.7v6.8h.1l-.1-6.8c.1 0 .1 0 0 0"/><path class="st21" d="M153 134.8v6.7c.4-.3.8-.6 1.2-1 .6-.8 1-1.6 1-2.4v-.4c0-.8-.4-1.5-1.2-2.1-.4-.3-.7-.6-1-.8"/><path class="st17" d="M157 139.3c.2-.4.1-.8-.2-1l.5-1c.4.1.7-.1.9-.4.2-.4.1-.9-.3-1.1l-.3-.2-1.2-.6-2-1.1-.9-.5c-2.4-1.3-3.4.7-4.7 3.1-1.3 2.4-2.3 4.3.1 5.6l1.3.7 2.8 1.5.2.1c.4.2.9.1 1.1-.3.2-.3.1-.7-.1-.9l.5-1c.3 0 .7-.1.8-.4.2-.3.1-.7-.1-.9l.5-1c.5-.1.9-.2 1.1-.6"/><path class="st22" d="M188.5 121.1c.1 1.2 0 2.3-.3 3.5.3-1.2.4-2.4.3-3.5m-.2-1.6c0 .1 0 .1 0 0 0 .4.1.7.1 1 0-.3 0-.6-.1-1"/><path class="st6" d="M162.7 96.1l5.4 24.4 5.4-24.4z"/><path class="st17" d="M173.5 88.8h-10.7v7.3c0 3 2.4 5.4 5.4 5.4s5.4-2.4 5.4-5.4v-7.3"/><defs><path id="SVGID_1_" d="M168 94c-1.8 0-3.5-.2-5.2-.6v2.7c0 3 2.4 5.4 5.4 5.4 3 0 5.4-2.4 5.4-5.4V93.3c-1.9.5-3.7.7-5.6.7"/></defs><clipPath id="SVGID_2_"><use xlink:href="#SVGID_1_" overflow="visible"/></clipPath><g class="st23"><defs><path id="SVGID_3_" d="M-688.6-213H360.2v847.4H-688.6z"/></defs><clipPath id="SVGID_4_"><use xlink:href="#SVGID_3_" overflow="visible"/></clipPath><path class="st24" d="M162.7 93.3h10.7v8.1h-10.7z"/></g><path class="st25" d="M190.7 61.7c0 19.3-9.5 10.5-22.4 10.5-12.9 0-23.2 7.6-23.2-10.5 0-12.9 9.9-24.3 22.8-24.3 13 .1 22.8 11.4 22.8 24.3"/><path class="st26" d="M186.2 70.1c0-2.5 2-4.4 4.4-4.4 2.5 0 4.4 2 4.4 4.4 0 2.5-2 4.4-4.4 4.4-2.4.1-4.4-1.9-4.4-4.4"/><path class="st17" d="M141.1 70.1c0-2.5 2-4.4 4.4-4.4 2.5 0 4.4 2 4.4 4.4 0 2.5-2 4.4-4.4 4.4-2.4.1-4.4-1.9-4.4-4.4"/><path class="st17" d="M190.5 71.4c0 12.4-10.2 22.6-22.6 22.6s-22.6-10.2-22.6-22.6v-7.9c0-2.4.4-4.7 1.1-6.9 2.9-9.1 7.7-15.7 21.5-15.7S185.8 47 189 55.5c1 2.5 1.5 5.2 1.5 8v7.9"/><path class="st27" d="M179.4 69.8c-.6 0-1 0-1-.5 0-.6.5-1 1-1 .6 0 1 .5 1 1s-.4.5-1 .5M156.6 69.8c-.6 0-1 0-1-.5 0-.6.5-1 1-1 .6 0 1 .5 1 1s-.5.5-1 .5"/><path class="st28" d="M168 66.5c-1.4 0-2.4 1.2-2.5 2.7l-.1 3.1c0 1.5 1 2.8 2.4 2.8h.1c1.3 0 2.4-1.2 2.4-2.7l.1-3.1c0-1.5-1-2.8-2.4-2.8"/><defs><path id="SVGID_5_" d="M153.3 38.1h29.2v7h-29.2z"/></defs><clipPath id="SVGID_6_"><use xlink:href="#SVGID_5_" overflow="visible"/></clipPath><path class="st29" d="M167.7 38.1c-2.5 0-4.6.1-6.3.4-3 1-5.8 2.6-8.1 4.7v.1c0 .4.5.7 1.4 1 3.1-2.1 7.4-3.2 13.2-3.2 6.9 0 11.3 1.5 14.5 4.1h.1v-1.6c-.2-.3-6.8-5.5-14.8-5.5"/><path class="st30" d="M168 41c-5.8 0-10.1 1.2-13.2 3.2 1.8.5 5.2.8 10.1.8h17.6c-3.2-2.5-7.7-4-14.5-4"/><path class="st25" d="M181.3 42.2c0 1.9 1.9 1.6 1.9 1.6h-17.7c-7.4 0-11.5-.7-11.5-1.8s1-5.1 14.4-5.1c8.1-.1 12.9 5.3 12.9 5.3"/><path class="st31" d="M155.9 75.3c-2.1-.2-3.7-1.1-4.6-2.5-2.2-3.3-.5-8.5-.5-8.7l.2-.6 12.4-.1.1.7c0 .2 1.1 6-1.6 9.2-1.2 1.5-3 2.2-5.3 2.1-.3 0-.5 0-.7-.1m-3.7-10.1c-.3 1.3-.9 4.6.4 6.7.8 1.2 2.1 1.8 4 1.8 1.8.1 3.1-.4 4-1.5 1.8-2 1.5-5.6 1.4-7.1l-9.8.1zM178 75.2c-2.1-.2-3.7-1.1-4.6-2.5-2.2-3.3-.5-8.5-.5-8.7l.2-.6 12.4-.1.1.7c0 .2 1.1 6-1.6 9.2-1.2 1.5-3 2.2-5.3 2.1-.3-.1-.5-.1-.7-.1M174.3 65c-.3 1.3-.9 4.6.4 6.7.8 1.2 2.1 1.8 4 1.8 1.8.1 3.1-.4 4-1.5 1.8-2.1 1.5-5.6 1.4-7.1l-9.8.1z"/><path class="st31" d="M162.9 68.9l-.3-.1c-.4-.2-.6-.7-.4-1.1.1-.2 2-3.8 6.2-3.8 3.5 0 5.1 3.1 5.4 4.7.1.4-.2.9-.6 1-.4.1-.9-.2-1-.6 0-.1-.8-3.4-3.8-3.4-3.2 0-4.7 2.8-4.7 2.9-.2.3-.5.5-.8.4M150.5 68.8c-.2 0-.4-.1-.5-.2l-5.1-1.3c-.3-.3-.3-.8 0-1.2.3-.3.8-.3 1.2 0l5.1 1.3c.3.3.3.8 0 1.2-.2.1-.4.2-.7.2M185.2 67.7c-.4 0-.8-.4-.7-.9 0-.5.4-.8.9-.8l4.8-1.5c.4 0 .8.4.8.9s-.4.8-.9.8l-4.9 1.5"/><path class="st27" d="M168 84.3c-1.4 0-2.7-.7-3.5-1.9-.2-.2-.1-.6.2-.7.2-.2.6-.1.7.2.6.9 1.5 1.4 2.6 1.4s2-.5 2.6-1.4c.2-.2.5-.3.7-.2.2.2.3.5.2.7-.8 1.2-2.1 1.9-3.5 1.9"/><path class="st32" d="M171.2 101.4l-6 2.1 2.4 2.1-.7 9.5 1.2 5.3 1.5-7-.5-7.9m2.1-4.1"/><path class="st33" d="M169.7 105l1.3-3.2-4.7 1 1.6 2.7-.5 11.9.7 3.1 2-9.3"/><path class="st34" d="M173.8 96.8L177 111l-3.2 2.9 1.1 2-9.2 18 2.4-13.4 5.2-23.7z"/><path class="st34" d="M162.7 97.4l5.4 23.1-.8 4.5-6.5-10.5 1.5-2.5-3.5-2.3z"/><circle class="st35" cx="58" cy="185.9" r="33.8"/><circle class="st35" cx="58" cy="185.9" r="3.2"/><path class="st36" d="M58 152.1v30.6M58 189.1v30.6M91.8 185.9H61.1M54.8 185.9H24.2M81.9 162l-21.7 21.7M55.8 188.1l-21.7 21.7M81.9 209.8l-21.7-21.7M55.8 183.7L34.1 162M71.3 154.8L59.2 183M56.7 188.8L44.6 217M89.1 199.3l-28.2-12.1M55.1 184.7l-28.2-12.2M89.4 173.4l-28.5 11.3M55 187.1l-28.4 11.3M70.5 217.3l-11.3-28.5M56.8 183l-11.3-28.5"/><path class="st37" d="M36.347 130.13l3.297-1.176 20.154 56.514-3.297 1.176z"/><path class="st37" d="M1.5 144.2l39.3-7.7-1-5.1-39 7.7c.2 1.7.4 3.4.7 5.1zM11.3 177.1l32.3-36-3.9-3.5-30.6 34.2c.7 1.8 1.4 3.5 2.2 5.3z"/><path class="st35" d="M38.2 129.4l-4.1-8.3s18.7-6.9 21.7 2.4-8.6 12.2-8.6 12.2"/><path class="st38" d="M54.8 121.168l6.613-3.32 1.794 3.575-6.613 3.32z"/><path class="st38" d="M60.306 116.055l.755-.263 5.067 14.543-.756.263z"/><path class="st17" d="M76 223c-1.8 0-3.2-1.5-3.2-3.5v-57.2c0-1.9 1.4-3.5 3.2-3.5 1.8 0 3.2 1.5 3.2 3.5v57.2c0 2-1.4 3.5-3.2 3.5M86.7 223c-1.8 0-3.2-1.5-3.2-3.5v-57.2c0-1.9 1.4-3.5 3.2-3.5s3.2 1.5 3.2 3.5v57.2c0 2-1.4 3.5-3.2 3.5"/><path class="st10" d="M82.3 158.9h8.9v18.6h-8.9zM71.6 158.9h8.9v18.6h-8.9z"/><path class="st17" d="M54.5 127.1c-.7 7.8 2.6 15.2 8.9 19.9.4.3.9.4 1.3.5 1.3.3 2.8-.2 3.7-1.3 1.2-1.6 1.4-3.4-.2-4.5-4.3-3.2-7.1-8.6-6.7-13.9.2-2.3.9-4.3 1.9-6.2l-6-3.9c-1.5 2.8-2.6 6-2.9 9.4"/><path class="st39" d="M78.6 106.7c-5.9-.5-11.7 1.3-16.3 5.2-1.9 1.6-3.5 3.6-4.8 5.7l6 3.9c2.8-5 8.4-8.2 14.5-7.7 2 .2 3.7-1.3 3.8-3.2.2-2-1.2-3.7-3.2-3.9"/><path class="st17" d="M104.5 117.7l-6 3.9c1 1.8 1.7 3.9 1.8 6.1.4 5.3-2.4 10.8-6.7 13.9-1.6 1.2-1.3 3-.2 4.5.9 1.2 2.3 1.7 3.7 1.3.5-.1 1-.2 1.3-.5 6.3-4.6 9.6-12.1 8.9-19.9-.1-3.3-1.1-6.5-2.8-9.3"/><path class="st39" d="M99.6 111.9c-4.6-3.8-10.3-5.7-16.3-5.2-2 .2-3.4 1.9-3.2 3.8.2 2 1.9 3.4 3.8 3.2 6.2-.5 11.8 2.7 14.6 7.8l6-3.9c-1.3-2.1-2.9-4-4.9-5.7"/><path class="st39" d="M95.2 123.8l.1-.1v-7.1c0-7.1-5.8-12.8-12.8-12.8h-2.3c-7.1 0-12.8 5.8-12.8 12.8v34.1c0 7.1 5.8 12.8 12.8 12.8h2.3c7.1 0 12.8-5.8 12.8-12.8v-27.1l-.1.2"/><path class="st17" d="M86.4 98.1h-10v6.8c0 2.8 2.2 5 5 5s5-2.2 5-5v-6.8"/><g><defs><path id="SVGID_7_" d="M81.3 102.9c-1.7 0-3.3-.2-4.9-.6v2.5c0 2.8 2.2 5 5 5s5-2.2 5-5v-2.6c-1.6.5-3.3.7-5.1.7"/></defs><clipPath id="SVGID_8_"><use xlink:href="#SVGID_7_" overflow="visible"/></clipPath><g class="st40"><defs><path id="SVGID_9_" d="M-715.8-182.8h976v788.6h-976z"/></defs><clipPath id="SVGID_10_"><use xlink:href="#SVGID_9_" overflow="visible"/></clipPath><path class="st41" d="M76.4 102.3h10v7.6h-10z"/></g></g><path class="st25" d="M102.5 72.9c0 18-8.8 9.7-20.9 9.7-12 0-21.6 7-21.6-9.7 0-12 9.2-22.6 21.2-22.6 12.1 0 21.3 10.6 21.3 22.6"/><path class="st26" d="M98.3 80.7c0-2.3 1.8-4.1 4.1-4.1s4.1 1.9 4.1 4.1c0 2.3-1.8 4.1-4.1 4.1-2.3.1-4.1-1.8-4.1-4.1"/><path class="st17" d="M56.3 80.7c0-2.3 1.8-4.1 4.1-4.1s4.1 1.9 4.1 4.1c0 2.3-1.9 4.1-4.1 4.1-2.2.1-4.1-1.8-4.1-4.1"/><path class="st17" d="M102.3 81.9c0 11.5-9.4 21-21 21s-21-9.5-21-21v-7.3c0-2.2.4-4.4 1-6.4 2.7-8.4 7.2-14.6 20-14.6s16.6 5.6 19.6 13.5c.9 2.3 1.4 4.8 1.4 7.5v7.3"/><path class="st27" d="M92 80.4c-.5 0-1 0-1-.5s.4-1 1-1c.5 0 1 .4 1 1-.1.5-.5.5-1 .5M70.7 80.4c-.5 0-1 0-1-.5s.4-1 1-1c.5 0 1 .4 1 1 0 .5-.5.5-1 .5"/><path class="st28" d="M81.4 77.4c-1.3 0-2.3 1.1-2.3 2.5l-.1 2.8c0 1.4 1 2.6 2.2 2.6h.1c1.2 0 2.2-1.1 2.2-2.5l.1-2.9c0-1.3-1-2.5-2.2-2.5"/><g><defs><path id="SVGID_11_" d="M67.7 50.9h27.2v6.5H67.7z"/></defs><clipPath id="SVGID_12_"><use xlink:href="#SVGID_11_" overflow="visible"/></clipPath><path class="st42" d="M81.1 50.9c-2.3 0-4.3.1-5.8.3-2.8.9-5.4 2.4-7.6 4.4v.1c0 .4.5.7 1.3.9 2.9-1.9 6.9-3 12.3-3 6.4 0 10.6 1.4 13.5 3.8h.1v-1.5c-.2-.2-6.4-5-13.8-5"/></g><path class="st30" d="M81.3 53.6c-5.4 0-9.4 1.1-12.3 3 1.7.5 4.9.8 9.4.8h16.3c-2.8-2.4-7-3.8-13.4-3.8"/><path class="st25" d="M93.7 54.7c0 1.8 1.8 1.5 1.8 1.5H79c-6.9 0-10.7-.7-10.7-1.7s.9-4.8 13.4-4.8c7.5 0 12 5 12 5"/><path class="st31" d="M70.1 85.6c-2-.2-3.4-1-4.3-2.4-2-3.1-.5-7.9-.4-8.1l.2-.5 11.4-.1.1.6c0 .2 1 5.5-1.5 8.5-1.2 1.4-2.8 2-5 1.9-.2.1-.4.1-.5.1m-3.5-9.5c-.3 1.2-.9 4.3.4 6.3.7 1.1 1.9 1.7 3.7 1.7 1.7.1 2.9-.4 3.8-1.4 1.6-1.9 1.4-5.3 1.3-6.6h-9.2zM90.6 85.4c-2-.2-3.4-1-4.3-2.4-2-3.1-.5-7.9-.4-8.1l.2-.5 11.5-.1.1.6c0 .2 1 5.5-1.5 8.5-1.2 1.4-2.8 2-5 1.9-.2.2-.4.2-.6.1M87.2 76c-.3 1.2-.9 4.3.4 6.3.7 1.1 1.9 1.7 3.7 1.7 1.7.1 2.9-.4 3.8-1.4 1.6-1.9 1.4-5.3 1.3-6.6h-9.2z"/><path class="st31" d="M76.6 79.6l-.3-.1c-.4-.2-.5-.6-.3-1 .1-.1 1.8-3.5 5.7-3.6 3.2 0 4.7 2.9 5 4.4.1.4-.2.8-.6.9-.4.1-.8-.2-.9-.6 0-.1-.7-3.2-3.5-3.2-3 0-4.3 2.6-4.4 2.7-.1.4-.4.5-.7.5M65.1 79.5c-.2 0-.3-.1-.5-.2L59.8 78c-.3-.3-.3-.8 0-1.1.3-.3.8-.3 1.1 0l4.8 1.2c.3.3.3.8 0 1.1-.2.2-.4.3-.6.3M97.4 78.5c-.4 0-.7-.4-.7-.8s.4-.7.8-.7l4.5-1.4c.4 0 .7.4.7.8s-.4.7-.8.7l-4.5 1.4"/><path class="st27" d="M81.3 93.9c-1.3 0-2.5-.7-3.2-1.8-.1-.2-.1-.5.2-.7.2-.1.5-.1.7.2.5.8 1.4 1.3 2.4 1.3s1.9-.5 2.4-1.3c.1-.2.4-.3.7-.2.2.1.3.4.2.7-.8 1.1-2 1.8-3.4 1.8"/><g><defs><path id="SVGID_13_" d="M67.3 140.7h5.5v10h-5.5z"/></defs><clipPath id="SVGID_14_"><use xlink:href="#SVGID_13_" overflow="visible"/></clipPath><path class="st43" d="M67.4 147.1s-.1 0 0 0l-.1 2.9h.1v-2.9m-.1-6.4v.2h.1l-.1-.2c.1 0 0 0 0 0"/><path class="st44" d="M67.4 147.1s-.1 0 0 0c-.1 0 0 0 0 0"/><path class="st45" d="M67.4 140.7v.2c.3.3.6.5.9.7.7.5 1.1 1.2 1.1 1.9v.3c0 .7-.4 1.5-.9 2.3-.3.4-.7.7-1.1 1v2.9l2.6.6H70.3c.3 0 .6-.2.7-.6.1-.3-.1-.6-.3-.8l.3-1c.3 0 .6-.3.7-.6.1-.3-.1-.6-.3-.8l.2-1c.3 0 .7-.2.7-.6.1-.4-.1-.7-.4-.9l.2-1c.3 0 .6-.2.7-.6V142.4c0-.3-.3-.6-.6-.6l-.3-.1-3.2-.8-1-.2h-.3"/></g><g><defs><path id="SVGID_15_" d="M89.7 150.7h5.5v-10h-5.5"/></defs><clipPath id="SVGID_16_"><use xlink:href="#SVGID_15_" overflow="visible"/></clipPath><g class="st46"><defs><path id="SVGID_17_" d="M-715.8-182.8h976v788.6h-976z"/></defs><clipPath id="SVGID_18_"><use xlink:href="#SVGID_17_" overflow="visible"/></clipPath><path class="st47" d="M94.8 140.7l-.9.2-3.6.9c-.3.1-.5.4-.6.7v.2c.1.3.4.6.7.6l.2 1c-.3.2-.5.5-.4.9.1.3.4.6.7.6l.2 1c-.3.2-.4.5-.3.8.1.3.4.5.7.6l.3 1c-.2.2-.4.5-.3.8.1.3.4.6.7.6H92.5l.2-.1 2.4-.6v-2.7c-.7-.2-1.3-.6-1.7-1.2-.6-.8-.9-1.6-.9-2.3v-.2c0-.7.4-1.4 1.1-2 .5-.2.8-.5 1.2-.8"/></g></g><g><defs><path id="SVGID_19_" d="M92.6 139.3h8.4v8.3h-8.4z"/></defs><clipPath id="SVGID_20_"><use xlink:href="#SVGID_19_" overflow="visible"/></clipPath><path class="st48" d="M96.8 139.3c-.2 0-.4 0-.6.1-.3.3-.6.6-.8.9v7.2c.3.1.7.2 1.1.2.3 0 .6 0 .8-.1.3-.1.6-.1.8-.3.1 0 .2-.1.3-.2.1 0 .1-.1.2-.1.8-.6 1.6-1.3 2.4-2-.2-.7-.7-1.5-1.1-2.4-1-1.8-1.8-3.3-3.1-3.3"/></g><g><defs><path id="SVGID_21_" d="M92.6 139.3h8.4v8.3h-8.4z"/></defs><clipPath id="SVGID_22_"><use xlink:href="#SVGID_21_" overflow="visible"/></clipPath><path class="st49" d="M95.2 140.7c-.1 0-.2 0-.4.1h-.1c-.3.3-.7.6-1.1.9-.7.6-1.1 1.2-1.1 2v.2c0 .8.4 1.6.9 2.3.4.6 1 1 1.7 1.2v-6.7"/></g><path class="st17" d="M90.9 145.1c-.2-.3-.1-.7.2-1l-.5-.9c-.3.1-.7-.1-.8-.4-.2-.4-.1-.8.3-1l.3-.1 1.1-.6 1.9-1 .9-.5c2.2-1.2 3.2.6 4.3 2.9 1.2 2.2 2.2 4-.1 5.2l-.9.5-.3.2-2.6 1.4-.2.1c-.4.2-.8.1-1-.3-.1-.3-.1-.6.1-.9l-.5-1c-.3 0-.6-.1-.8-.4-.2-.3-.1-.6.1-.9l-.5-.9c-.4.1-.8-.1-1-.4"/><path class="st18" d="M63.5 147c.2.1.4.2.7.3-.2 0-.5-.1-.7-.3m2.3-7.7l1.5 1.5c-.5-.4-1-.9-1.5-1.5"/><g><defs><path id="SVGID_23_" d="M61.1 139.3h8.3v8.3h-8.3z"/></defs><clipPath id="SVGID_24_"><use xlink:href="#SVGID_23_" overflow="visible"/></clipPath><path class="st50" d="M65.3 139.3c-1.4 0-2.2 1.5-3.1 3.2-.5.9-.9 1.7-1.1 2.4.7.7 1.5 1.4 2.3 2 0 0 .1 0 .1.1.2.1.4.2.7.3.2.1.4.1.6.2.2.1.5.1.8.1h.1c.6 0 1.1-.2 1.7-.4v-6.3c-.5-.5-1.1-1-1.5-1.5-.3-.1-.4-.1-.6-.1"/></g><path class="st19" d="M67.3 140.8c0 .1.1.1 0 0 .1.1 0 .1 0 0"/><path class="st20" d="M67.3 140.8v6.3h.1l-.1-6.3c.1.1 0 .1 0 0"/><path class="st21" d="M67.4 140.9v6.2c.4-.2.8-.6 1.1-1 .5-.7.9-1.5.9-2.3v-.3c0-.7-.4-1.4-1.1-1.9-.3-.2-.6-.5-.9-.7"/><path class="st17" d="M71.1 145.1c.2-.3.1-.7-.2-1l.5-.9c.3.1.7-.1.8-.4.2-.4.1-.8-.3-1l-.3-.1-1.1-.6-1.9-1-.9-.5c-2.2-1.2-3.2.6-4.3 2.9-1.2 2.2-2.2 4 .1 5.2l1.2.6 2.6 1.4.2.1c.4.2.8.1 1-.3.1-.3.1-.6-.1-.9l.5-1c.3 0 .6-.1.8-.4.2-.3.1-.6-.1-.9l.5-.9c.5.2.8 0 1-.3"/><path class="st22" d="M100.4 128.2c0 1.1 0 2.2-.2 3.2.2-1.1.3-2.2.2-3.2m-.1-1.5s0 .1 0 0c0 .3.1.6.1.9 0-.3-.1-.6-.1-.9"/><path class="st51" d="M115.9 69.7c0 2.7-9 3.1-20 3.1s-25.2-2.2-29.1-3.1c-2.6-.6 18.1-2.6 29.1-2.6s20-.1 20 2.6z"/><path class="st52" d="M60 69.7c0-12.2 9.5-22.1 21.2-22.1s21.2 9.9 21.2 22.1"/><path class="st53" d="M66.8 69.7s1.9-15.5 14.4-22.1c12.5 7.1 14.3 22.1 14.3 22.1H66.8z"/><text transform="translate(69.565 30.615)"><tspan x="0" y="0" class="st10 st54 st55">P</tspan><tspan x="4.9" y="0" class="st10 st54 st55">AS</tspan><tspan x="16" y="0" class="st10 st54 st55">T</tspan></text><text transform="translate(151.887 30.615)" class="st10 st54 st55">FUTURE</text><g><path class="st56" d="M110.5 93.9h17.1v5.9h-17.1z"/><path class="st56" d="M125.5 104.2l12.6-7.4-12.6-7.3z"/></g></svg>